<svg width="160" height="107" viewBox="0 0 160 107" fill="none" xmlns="http://www.w3.org/2000/svg">
<g clip-path="url(#clip0)">
<path d="M0 13.3333C0 5.96954 5.96954 0 13.3333 0H146.667C154.03 0 160 5.96954 160 13.3333V93.3333C160 100.697 154.03 106.667 146.667 106.667H13.3333C5.96953 106.667 0 100.697 0 93.3333V13.3333Z" fill="#E6E6E6"/>
<path d="M124.035 83.762C130.18 83.762 133.072 81.4172 135.599 74.3097L146.667 43.2663H140.258L132.836 67.2835H132.706L125.284 43.2989H118.695L129.372 72.8459L128.8 74.6431C128.396 77.2156 126.087 79.0508 123.487 78.861C122.991 78.861 122.029 78.8095 121.638 78.758V83.6373C122.433 83.7458 123.235 83.7973 124.035 83.7945V83.762ZM102.679 68.2159C99.3182 68.2159 97.1848 66.5895 97.1848 64.1282C97.1848 61.5774 99.2423 60.0919 103.176 59.856L110.18 59.4142V61.7075C110.026 65.4862 106.835 68.4274 103.056 68.2729C102.929 68.2675 102.804 68.2566 102.679 68.2458V68.2159ZM100.988 73.0329C104.802 73.1359 108.369 71.149 110.286 67.85H110.416V72.7293H116.249V52.5208C116.249 46.6602 111.563 42.8841 104.347 42.8841C97.6538 42.8841 92.704 46.7117 92.5223 51.9732H98.2013C98.879 49.2977 101.422 47.533 104.165 47.8312C108.02 47.8312 110.18 49.6284 110.18 52.9355V55.1746L102.319 55.6436C95 56.0854 91.0423 59.0808 91.0423 64.2908C91.0369 69.574 95.1247 73.0627 100.985 73.0627L100.988 73.0329ZM67.1824 37.4328H74.4472C79.9174 37.4328 83.0429 40.3496 83.0429 45.481C83.0429 50.6124 79.9174 53.5536 74.4228 53.5536H67.1824V37.4328ZM60.8799 32.1198V72.7212H67.1824V58.8802H75.9082C83.0158 59.2624 89.0851 53.8111 89.4674 46.7036C89.489 46.2997 89.4918 45.8985 89.4755 45.4946C89.8116 38.4656 84.3874 32.4966 77.3585 32.1577C76.9437 32.1388 76.5317 32.1415 76.117 32.1605L60.8799 32.1198ZM39.9612 39.6963C36.3396 39.4876 33.2413 41.7537 31.5227 41.7537C29.8041 41.7537 27.1475 39.802 24.2823 39.8562C20.4872 39.9538 17.0283 42.0546 15.1932 45.378C11.287 52.0979 14.1767 62.0463 17.9527 67.5139C19.8014 70.2246 22.0188 73.1929 24.9329 73.0871C27.6924 72.9841 28.7875 71.2899 32.1217 71.2899C35.4559 71.2899 36.4454 73.0871 39.3621 73.0329C42.3819 72.9814 44.2848 70.3222 46.1389 67.6115C47.4455 65.6923 48.462 63.5914 49.1587 61.3768C45.5995 59.8208 43.2927 56.3158 43.2737 52.4313C43.3279 49.005 45.1224 45.8443 48.0392 44.047C46.1796 41.4068 43.1951 39.7858 39.9666 39.6719L39.9612 39.6963ZM37.7004 36.11C36.1146 38.1078 33.6885 39.2545 31.1377 39.2084C30.9751 36.7199 31.8208 34.2721 33.4825 32.4126C35.1361 30.4934 37.4673 29.2898 39.9883 29.054C40.1672 31.6129 39.3458 34.1393 37.695 36.1019" fill="black"/>
</g>
<defs>
<clipPath id="clip0">
<rect width="160" height="106.667" fill="white"/>
</clipPath>
</defs>
</svg>
