<svg width="106" height="43" viewBox="0 0 106 43" fill="none" xmlns="http://www.w3.org/2000/svg">
<path d="M0 43V0H3.72656V43H0ZM5.56024 42.9694V0H7.45312V42.9694H5.56024ZM11.1797 42.9694V0H13.0134V42.9694H11.1797ZM20.4665 42.9694V0H22.3002V42.9694H20.4665ZM27.9196 42.9694V0H31.587V42.9694H27.9196ZM37.2064 42.9694V0H39.0401V42.9694H37.2064ZM40.933 42.9694V0H42.7666V42.9694H40.933ZM44.6595 42.9694V0H46.4932V42.9694H44.6595ZM52.0537 42.9694V0H55.7802V42.9694H52.0537ZM61.3405 42.9694V0H65.067V42.9694H61.3405ZM68.7934 42.9694V0H72.5201V42.9694H68.7934ZM76.2467 42.9694V0H79.9735V42.9694H76.2467ZM81.8069 42.9694V0H85.5335V42.9694H81.8069ZM91.153 42.9694V0H96.7132V42.9694H91.153ZM98.5469 42.9694V0H100.44V42.9694H98.5469ZM102.273 43V0H106V43H102.273Z" fill="#110604"/>
</svg>
