<svg width="160" height="107" viewBox="0 0 160 107" fill="none" xmlns="http://www.w3.org/2000/svg">
<g clip-path="url(#clip0)">
<path d="M0 13.3333C0 5.96954 5.96954 0 13.3333 0H146.667C154.03 0 160 5.96954 160 13.3333V93.3333C160 100.697 154.03 106.667 146.667 106.667H13.3333C5.96953 106.667 0 100.697 0 93.3333V13.3333Z" fill="#FDE8CE"/>
<path d="M120 53.3503C119.992 75.4427 102.073 93.3439 79.9831 93.3334C57.8927 93.3249 39.9915 75.4089 40 53.3164C40.0085 31.2325 57.9118 13.3355 79.9958 13.3334C102.088 13.3313 119.998 31.2409 120 53.3334V53.3503Z" fill="#F7931A"/>
<path d="M87.292 45.5741C87.292 50.6857 79.267 50.0891 76.7134 50.0891V41.0549C79.267 41.0507 87.2814 40.2382 87.2814 45.5699L87.292 45.5741ZM89.395 59.6268C89.395 65.2441 79.779 64.6051 76.7112 64.6072V54.6464C79.779 54.6442 89.3972 53.762 89.3972 59.6226L89.395 59.6268ZM95.7253 43.5472C95.2112 38.1881 90.5841 36.3918 84.7447 35.8798V28.4473H80.2212V35.6852C79.0322 35.6852 77.8156 35.7085 76.6076 35.7338V28.4494H72.0862V35.8798C71.1067 35.8989 70.144 35.9179 69.2067 35.9179V35.8946H62.9653V40.7333C62.9653 40.7333 66.3061 40.6698 66.2511 40.7333C67.5142 40.5704 68.6757 41.4548 68.8534 42.7158V51.1787C69.0121 51.1787 69.1729 51.1893 69.3316 51.2104H68.8534V63.0733C68.8005 63.9556 68.0452 64.6263 67.1651 64.5734H67.1608C67.218 64.6242 63.873 64.5734 63.873 64.5734L62.9738 69.977H68.8619C69.9578 69.977 71.0347 69.996 72.0926 70.0045V77.5217H76.6118V70.0827C77.8516 70.1081 79.0533 70.1187 80.2255 70.1187V77.5238H84.7425V70.0193C92.3592 69.5834 97.6739 67.6666 98.334 60.5239C98.8672 54.7712 96.1611 52.2048 91.8451 51.1681C94.7203 49.8056 96.3135 46.6743 95.7253 43.5472Z" fill="white"/>
</g>
<defs>
<clipPath id="clip0">
<rect width="160" height="106.667" fill="white"/>
</clipPath>
</defs>
</svg>
