<svg width="28" height="32" viewBox="0 0 28 32" fill="none" xmlns="http://www.w3.org/2000/svg">
<path d="M10.3764 17.2036H13.3257C19.7329 17.2036 23.3684 14.3182 24.5257 8.38578C24.5631 8.19022 24.5969 8.00178 24.6253 7.81333C24.6893 7.41156 24.7213 7.05067 24.7355 6.704C24.7462 6.46578 24.7533 6.32533 24.7515 6.19378C24.7497 5.55845 24.6191 4.93008 24.3675 4.34667C24.1382 3.82044 23.7915 3.30311 23.2777 2.71467C21.7613 0.990222 19.1195 0 15.964 0H5.91419C5.57171 0.00041519 5.24059 0.12288 4.98026 0.345413C4.71994 0.567947 4.54744 0.875979 4.49375 1.21422L2.68041 12.896L0.424413 27.4471C0.405167 27.5703 0.412824 27.6962 0.446857 27.8162C0.48089 27.9362 0.540492 28.0474 0.621569 28.1422C0.702646 28.2369 0.803276 28.313 0.916545 28.3652C1.02981 28.4174 1.15304 28.4444 1.27775 28.4444H6.20575L7.71508 19.4791C7.81294 18.8441 8.13532 18.2652 8.62366 17.8477C9.112 17.4301 9.7339 17.2016 10.3764 17.2036ZM26.5595 9.04889C25.1515 15.7529 20.5915 19.3102 13.324 19.3102H10.3764C10.2352 19.3099 10.0987 19.3604 9.99164 19.4525C9.88459 19.5445 9.8142 19.6719 9.7933 19.8116L7.82886 32H12.9969C13.2965 32.0003 13.5864 31.8935 13.8142 31.6989C14.0421 31.5043 14.1929 31.2347 14.2395 30.9387L14.2911 30.672L15.2777 24.4249L15.3417 24.08C15.3884 23.784 15.5392 23.5144 15.767 23.3198C15.9949 23.1252 16.2848 23.0184 16.5844 23.0187H17.3666C22.4333 23.0187 26.3995 20.96 27.5586 15.008C28.0351 12.5547 27.7933 10.5031 26.5595 9.04889V9.04889Z" fill="#110604"/>
</svg>
