<svg width="46" height="30" viewBox="0 0 46 30" fill="none" xmlns="http://www.w3.org/2000/svg">
<path opacity="0.5" d="M30.5327 30C27.566 30.0004 24.6658 29.1211 22.1988 27.4733C19.7318 25.8254 17.8089 23.483 16.6732 20.7423C15.5375 18.0016 15.24 14.9856 15.8183 12.0758C16.3967 9.16604 17.8249 6.49308 19.9223 4.39498C22.0198 2.29688 24.6924 0.867873 27.602 0.288663C30.5116 -0.290548 33.5277 0.00605304 36.2687 1.14096C39.0098 2.27587 41.3527 4.19811 43.0013 6.6646C44.6499 9.13109 45.5301 12.0311 45.5305 14.9978V15C45.5264 18.9766 43.945 22.7892 41.1333 25.6013C38.3217 28.4133 34.5093 29.9953 30.5327 30V30Z" fill="#110604"/>
<path d="M15.9386 30C12.9719 30 10.0718 29.1203 7.60505 27.472C5.13831 25.8238 3.21573 23.4811 2.08041 20.7403C0.945098 17.9994 0.648048 14.9834 1.22683 12.0736C1.8056 9.16393 3.23422 6.49119 5.332 4.3934C7.42979 2.29562 10.1025 0.867005 13.0122 0.288227C15.922 -0.290551 18.938 0.00649968 21.6789 1.14181C24.4197 2.27713 26.7624 4.19971 28.4106 6.66645C30.0589 9.13319 30.9386 12.0333 30.9386 15C30.9345 18.977 29.3528 22.7899 26.5406 25.602C23.7285 28.4142 19.9156 29.9959 15.9386 30Z" fill="#110604"/>
</svg>
