<svg width="28" height="32" viewBox="0 0 28 32" fill="none" xmlns="http://www.w3.org/2000/svg">
<path d="M10.3765 17.2036H13.3258C19.7329 17.2036 23.3685 14.3182 24.5258 8.38578C24.5631 8.19022 24.5969 8.00178 24.6254 7.81333C24.6894 7.41156 24.7214 7.05067 24.7356 6.704C24.7463 6.46578 24.7534 6.32533 24.7516 6.19378C24.7498 5.55845 24.6191 4.93008 24.3676 4.34667C24.1383 3.82044 23.7916 3.30311 23.2778 2.71467C21.7614 0.990222 19.1196 0 15.964 0H5.91425C5.57177 0.00041519 5.24065 0.12288 4.98033 0.345413C4.72 0.567947 4.5475 0.875979 4.49381 1.21422L2.68047 12.896L0.424474 27.4471C0.405228 27.5703 0.412885 27.6962 0.446918 27.8162C0.480951 27.9362 0.540553 28.0474 0.62163 28.1422C0.702707 28.2369 0.803337 28.313 0.916606 28.3652C1.02987 28.4174 1.1531 28.4444 1.27781 28.4444H6.20581L7.71514 19.4791C7.813 18.8441 8.13538 18.2652 8.62372 17.8477C9.11206 17.4301 9.73396 17.2016 10.3765 17.2036ZM26.5596 9.04889C25.1516 15.7529 20.5916 19.3102 13.324 19.3102H10.3765C10.2353 19.3099 10.0987 19.3604 9.9917 19.4525C9.88465 19.5445 9.81426 19.6719 9.79336 19.8116L7.82892 32H12.9969C13.2966 32.0003 13.5864 31.8935 13.8143 31.6989C14.0421 31.5043 14.193 31.2347 14.2396 30.9387L14.2911 30.672L15.2778 24.4249L15.3418 24.08C15.3884 23.784 15.5393 23.5144 15.7671 23.3198C15.995 23.1252 16.2848 23.0184 16.5845 23.0187H17.3667C22.4334 23.0187 26.3996 20.96 27.5587 15.008C28.0351 12.5547 27.7934 10.5031 26.5596 9.04889V9.04889Z" fill="#110604"/>
</svg>
