<svg width="33" height="32" viewBox="0 0 33 32" fill="none" xmlns="http://www.w3.org/2000/svg">
<path d="M31.8358 12.9996C32.0357 14.0707 32.1446 15.1906 32.1446 16.3592C32.1446 25.5002 26.0268 32 16.7866 32C14.6853 32.0006 12.6044 31.5872 10.6629 30.7834C8.72143 29.9795 6.95735 28.801 5.47148 27.3151C3.98562 25.8293 2.80709 24.0652 2.00324 22.1237C1.1994 20.1822 0.785981 18.1013 0.786622 16C0.785981 13.8987 1.1994 11.8178 2.00324 9.87631C2.80709 7.93481 3.98562 6.17073 5.47148 4.68486C6.95735 3.199 8.72143 2.02047 10.6629 1.21662C12.6044 0.412775 14.6853 -0.000639938 16.7866 7.43522e-07C21.1068 7.43522e-07 24.7167 1.5896 27.4863 4.17066L22.976 8.68102V8.66965C21.297 7.0703 19.1661 6.24949 16.7866 6.24949C11.5075 6.24949 7.21653 10.7095 7.21653 15.9902C7.21653 21.2694 11.5075 25.7391 16.7866 25.7391C21.5765 25.7391 24.837 23.0004 25.5067 19.2393H16.7866V12.9996H31.8374H31.8358Z" fill="#110604"/>
</svg>
