<svg width="160" height="107" viewBox="0 0 160 107" fill="none" xmlns="http://www.w3.org/2000/svg">
<g clip-path="url(#clip0)">
<path d="M0 13.3333C0 5.96954 5.96954 0 13.3333 0H146.667C154.03 0 160 5.96954 160 13.3333V93.3333C160 100.697 154.03 106.667 146.667 106.667H13.3333C5.96953 106.667 0 100.697 0 93.3333V13.3333Z" fill="#E4E5E7"/>
<path d="M76.3909 56.917V72.3296H71.4673V34.2673H84.5255C86.0842 34.235 87.6339 34.5095 89.0852 35.0751C90.5365 35.6406 91.8606 36.486 92.9812 37.5624C94.1131 38.5735 95.0139 39.8135 95.6232 41.199C96.2324 42.5845 96.5359 44.0835 96.5133 45.5952C96.5457 47.115 96.2469 48.6238 95.6372 50.0181C95.0276 51.4125 94.1215 52.6594 92.9812 53.6735C90.6978 55.8358 87.8792 56.916 84.5255 56.914H76.3909V56.917ZM76.3909 38.9534V52.2401H84.6478C85.553 52.2667 86.4539 52.1054 87.2927 51.7666C88.1316 51.4277 88.89 50.9187 89.5194 50.2721C90.1456 49.6676 90.6433 48.9445 90.9831 48.1456C91.323 47.3467 91.4981 46.4883 91.4981 45.621C91.4981 44.7538 91.323 43.8953 90.9831 43.0964C90.6433 42.2975 90.1456 41.5744 89.5194 40.9699C88.8979 40.3097 88.1421 39.7882 87.3022 39.44C86.4624 39.0919 85.5576 38.9249 84.6478 38.9503H76.3909V38.9534Z" fill="#5F6368"/>
<path d="M107.86 45.437C111.499 45.437 114.372 46.4028 116.478 48.3343C118.584 50.2658 119.636 52.914 119.634 56.279V72.3293H114.924V68.7153H114.71C112.671 71.6915 109.96 73.1797 106.575 73.1797C103.686 73.1797 101.27 72.3293 99.3246 70.6286C98.3912 69.848 97.6449 68.8705 97.1402 67.7672C96.6355 66.6639 96.385 65.4626 96.4071 64.251C96.4071 61.5562 97.4326 59.4131 99.4836 57.8217C101.535 56.2304 104.273 55.4327 107.698 55.4286C110.621 55.4286 113.029 55.9601 114.921 57.023V55.9054C114.927 55.0794 114.747 54.2625 114.395 53.514C114.043 52.7655 113.528 52.1041 112.887 51.5777C111.585 50.4112 109.888 49.7747 108.135 49.7951C105.385 49.7951 103.208 50.9471 101.606 53.2511L97.2695 50.5391C99.6548 47.1377 103.185 45.437 107.86 45.437ZM101.49 64.3573C101.486 64.9796 101.633 65.5936 101.917 66.1483C102.201 66.703 102.614 67.1822 103.123 67.5461C104.212 68.3967 105.563 68.8474 106.948 68.8216C109.026 68.8182 111.018 67.9969 112.487 66.5378C114.118 65.0133 114.933 63.2245 114.933 61.1715C113.398 59.9567 111.257 59.3493 108.511 59.3493C106.511 59.3493 104.843 59.8282 103.508 60.7858C102.159 61.7576 101.49 62.939 101.49 64.3573V64.3573Z" fill="#5F6368"/>
<path d="M146.667 46.2875L130.226 83.8091H125.144L131.245 70.6803L120.434 46.2875H125.786L133.599 64.9952H133.706L141.306 46.2875H146.667Z" fill="#5F6368"/>
<path d="M56.4949 53.5945C56.4968 52.1045 56.3699 50.617 56.1157 49.1484H35.3511V57.5699H47.2441C47.0007 58.915 46.4856 60.1971 45.7299 61.3391C44.9741 62.4812 43.9933 63.4594 42.8465 64.2148V69.6813H49.9444C54.1004 65.876 56.4949 60.2485 56.4949 53.5945Z" fill="#4285F4"/>
<path d="M35.3511 74.9627C41.2931 74.9627 46.2962 73.0251 49.9445 69.6844L42.8466 64.2179C40.8711 65.5481 38.3267 66.3073 35.3511 66.3073C29.608 66.3073 24.7333 62.4625 22.9902 57.2815H15.6782V62.9151C17.5109 66.5366 20.321 69.581 23.7949 71.7084C27.2688 73.8358 31.2698 74.9625 35.3511 74.9627V74.9627Z" fill="#34A853"/>
<path d="M22.9901 57.2815C22.0685 54.5666 22.0685 51.6266 22.9901 48.9116V43.2781H15.6781C14.1364 46.3246 13.3335 49.687 13.3335 53.0966C13.3335 56.5062 14.1364 59.8685 15.6781 62.9151L22.9901 57.2815Z" fill="#FBBC04"/>
<path d="M35.3511 39.8857C38.4912 39.8347 41.5253 41.0129 43.7977 43.1656L50.0821 36.9246C46.0971 33.2076 40.8179 31.1669 35.3511 31.2303C31.2698 31.2305 27.2688 32.3572 23.7949 34.4846C20.321 36.612 17.5109 39.6564 15.6782 43.2779L22.9902 48.9115C24.7333 43.7305 29.608 39.8857 35.3511 39.8857Z" fill="#EA4335"/>
</g>
<defs>
<clipPath id="clip0">
<rect width="160" height="106.667" fill="white"/>
</clipPath>
</defs>
</svg>
