<svg width="28" height="32" viewBox="0 0 28 32" fill="none" xmlns="http://www.w3.org/2000/svg">
<path d="M23.0066 16.9109C22.9912 14.2879 24.1796 12.3111 26.5795 10.8534C25.2372 8.93042 23.2066 7.87277 20.5297 7.66893C17.9952 7.46894 15.2223 9.1458 14.2069 9.1458C13.1339 9.1458 10.6801 7.73816 8.74943 7.73816C4.76497 7.7997 0.530518 10.915 0.530518 17.2532C0.530518 19.1262 0.872812 21.0607 1.5574 23.0529C2.47275 25.6759 5.77262 32.1026 9.2148 31.9988C11.0147 31.9564 12.2878 30.7219 14.63 30.7219C16.903 30.7219 18.0798 31.9988 20.0875 31.9988C23.5604 31.9488 26.5449 26.1067 27.4141 23.476C22.7566 21.2799 23.0066 17.0455 23.0066 16.9109V16.9109ZM18.9644 5.18057C20.9143 2.86527 20.7374 0.757663 20.6797 0C18.9567 0.0999961 16.9645 1.17303 15.8299 2.49221C14.58 3.90754 13.8454 5.65747 14.0031 7.63047C15.8645 7.77277 17.5645 6.81512 18.9644 5.18057V5.18057Z" fill="#110604"/>
</svg>
