<svg width="160" height="107" viewBox="0 0 160 107" fill="none" xmlns="http://www.w3.org/2000/svg">
<g clip-path="url(#clip0)">
<path d="M0 13.3333C0 5.96954 5.96954 0 13.3333 0H146.667C154.03 0 160 5.96954 160 13.3333V93.3333C160 100.697 154.03 106.667 146.667 106.667H13.3333C5.96953 106.667 0 100.697 0 93.3333V13.3333Z" fill="#FDEACE"/>
<path d="M96.6928 21.7578L62.2627 21.8762L63.306 84.909L97.7361 84.7906L96.6928 21.7578Z" fill="#FF5F00"/>
<path d="M64.5288 53.5198C64.3158 40.6995 70.0589 29.3081 79.0544 21.9191C72.2644 16.5909 63.752 13.3869 54.5244 13.4185C32.6636 13.4934 15.2756 31.5025 15.6442 53.6873C16.0129 75.872 33.9975 93.76 55.8583 93.6851C65.0859 93.6535 73.4909 90.3916 80.103 85.0175C70.8647 77.8025 64.7419 66.3402 64.5288 53.5198Z" fill="#EB001B"/>
<path d="M144.354 52.9799C144.723 75.1647 127.335 93.1737 105.474 93.2486C96.2465 93.2802 87.7341 90.0763 80.9442 84.7481C90.0495 77.3587 95.6828 65.9677 95.4697 53.1473C95.2567 40.3269 89.1357 28.9762 79.8956 21.6496C86.5077 16.2756 94.9127 13.0136 104.14 12.982C126.001 12.9072 143.988 30.9066 144.354 52.9799Z" fill="#F79E1B"/>
</g>
<defs>
<clipPath id="clip0">
<rect width="160" height="106.667" fill="white"/>
</clipPath>
</defs>
</svg>
