<svg width="160" height="107" viewBox="0 0 160 107" fill="none" xmlns="http://www.w3.org/2000/svg">
<g clip-path="url(#clip0)">
<path d="M0 13.3333C0 5.96954 5.96954 0 13.3333 0H146.667C154.03 0 160 5.96954 160 13.3333V93.3333C160 100.697 154.03 106.667 146.667 106.667H13.3333C5.96953 106.667 0 100.697 0 93.3333V13.3333Z" fill="#CCDEFF"/>
<path d="M35.9027 38.3914C34.2314 37.2425 32.0506 36.6666 29.3603 36.6666H18.9446C18.1198 36.6666 17.6642 37.0791 17.5776 37.9033L13.3465 64.4628C13.3026 64.7236 13.3678 64.9622 13.5417 65.1791C13.7146 65.3963 13.9321 65.5044 14.1926 65.5044H19.14C20.0077 65.5044 20.4847 65.0929 20.5722 64.2678L21.7438 57.1074C21.7866 56.7603 21.9392 56.4782 22.1997 56.2609C22.4599 56.044 22.7854 55.9022 23.176 55.8373C23.5666 55.7728 23.9349 55.7402 24.2828 55.7402C24.6296 55.7402 25.0417 55.7623 25.5198 55.8055C25.9967 55.8486 26.3008 55.8699 26.4311 55.8699C30.1631 55.8699 33.0925 54.8183 35.2194 52.7127C37.3452 50.6084 38.4094 47.6902 38.4094 43.957C38.4094 41.3965 37.5731 39.5414 35.9027 38.3908V38.3914ZM30.5324 46.3664C30.3148 47.8856 29.7513 48.8832 28.8399 49.3608C27.9284 49.8389 26.6265 50.0769 24.9342 50.0769L22.7858 50.1418L23.8928 43.1762C23.9791 42.6992 24.2611 42.4604 24.7388 42.4604H25.9761C27.7111 42.4604 28.9705 42.7106 29.7517 43.2088C30.5324 43.7082 30.7929 44.761 30.5324 46.3664V46.3664Z" fill="#003087"/>
<path d="M145.819 36.6666H141.003C140.524 36.6666 140.242 36.9054 140.156 37.3831L135.925 64.464L135.859 64.5941C135.859 64.8122 135.946 65.0173 136.12 65.2127C136.293 65.4077 136.511 65.5054 136.771 65.5054H141.068C141.891 65.5054 142.347 65.0939 142.435 64.2688L146.666 37.6436V37.5789C146.666 36.9711 146.383 36.6674 145.819 36.6674V36.6666Z" fill="#009CDE"/>
<path d="M87.6227 47.1483C87.6227 46.9318 87.5355 46.7252 87.363 46.5304C87.1889 46.3352 86.9935 46.2369 86.777 46.2369H81.7645C81.2862 46.2369 80.8956 46.455 80.5923 46.8878L73.6921 57.0434L70.8278 47.2788C70.6098 46.585 70.133 46.2369 69.3958 46.2369H64.5127C64.2952 46.2369 64.1 46.3348 63.9275 46.5304C63.7534 46.7252 63.667 46.9322 63.667 47.1483C63.667 47.2356 64.0902 48.5154 64.9363 50.9891C65.7823 53.4636 66.6937 56.1327 67.6703 58.9971C68.6468 61.861 69.1564 63.3808 69.2 63.5529C65.6411 68.4143 63.8624 71.0182 63.8624 71.3648C63.8624 71.9295 64.1439 72.2112 64.7086 72.2112H69.7211C70.1983 72.2112 70.5887 71.9947 70.8931 71.5606L87.4933 47.6037C87.5795 47.5178 87.6227 47.3665 87.6227 47.1481V47.1483Z" fill="#003087"/>
<path d="M134.299 46.2373H129.352C128.743 46.2373 128.376 46.9536 128.245 48.386C127.116 46.6506 125.056 45.7816 122.06 45.7816C118.936 45.7816 116.277 46.9536 114.086 49.2972C111.894 51.6407 110.799 54.3974 110.799 57.5651C110.799 60.1261 111.548 62.1657 113.045 63.6841C114.542 65.2041 116.549 65.9626 119.067 65.9626C120.325 65.9626 121.605 65.7017 122.907 65.1814C124.209 64.6607 125.228 63.9666 125.967 63.0983C125.967 63.1419 125.923 63.3365 125.837 63.6835C125.749 64.0313 125.707 64.2926 125.707 64.4647C125.707 65.1599 125.988 65.5061 126.553 65.5061H131.045C131.869 65.5061 132.347 65.0946 132.476 64.2695L135.146 47.2787C135.188 47.0181 135.124 46.7799 134.95 46.5626C134.776 46.3461 134.559 46.2373 134.299 46.2373V46.2373ZM125.804 59.0622C124.697 60.1472 123.363 60.6895 121.8 60.6895C120.541 60.6895 119.522 60.3428 118.741 59.648C117.959 58.9552 117.569 58.0003 117.569 56.7837C117.569 55.1792 118.111 53.8217 119.197 52.7152C120.28 51.6085 121.627 51.0553 123.232 51.0553C124.447 51.0553 125.456 51.4133 126.259 52.129C127.062 52.8453 127.464 53.8327 127.464 55.0916C127.464 56.6538 126.911 57.9778 125.804 59.0622Z" fill="#009CDE"/>
<path d="M60.3464 46.2373H55.3989C54.7904 46.2373 54.4223 46.9536 54.292 48.386C53.1202 46.6506 51.0586 45.7816 48.1076 45.7816C44.9828 45.7816 42.3243 46.9536 40.133 49.2972C37.9411 51.6407 36.8457 54.3974 36.8457 57.5651C36.8457 60.1261 37.5945 62.1657 39.0918 63.6841C40.589 65.2041 42.5957 65.9626 45.1132 65.9626C46.3277 65.9626 47.5871 65.7017 48.8888 65.1814C50.1907 64.6607 51.2323 63.9666 52.0135 63.0983C51.8394 63.6186 51.753 64.0745 51.753 64.4647C51.753 65.1599 52.035 65.5061 52.5993 65.5061H57.091C57.9149 65.5061 58.3929 65.0946 58.5232 64.2695L61.1921 47.2787C61.2349 47.0181 61.17 46.7799 60.9969 46.5626C60.8232 46.3461 60.6065 46.2373 60.3464 46.2373V46.2373ZM51.8511 59.0944C50.7442 60.159 49.3874 60.6895 47.7826 60.6895C46.5233 60.6895 45.5143 60.3428 44.7554 59.648C43.9955 58.9552 43.6161 58.0003 43.6161 56.7837C43.6161 55.1792 44.1583 53.8217 45.2437 52.7152C46.3279 51.6085 47.6734 51.0551 49.2797 51.0551C50.4943 51.0551 51.5033 51.4133 52.307 52.129C53.1092 52.8453 53.5112 53.8327 53.5112 55.0916C53.511 56.6974 52.9578 58.0323 51.8511 59.0944V59.0944Z" fill="#003087"/>
<path d="M109.855 38.3914C108.184 37.2425 106.003 36.6666 103.312 36.6666H92.9617C92.0935 36.6666 91.6158 37.0791 91.5296 37.9033L87.2982 64.4628C87.2542 64.7236 87.3195 64.9622 87.4936 65.1791C87.6657 65.3963 87.8838 65.5044 88.1442 65.5044H93.482C94.0027 65.5044 94.3497 65.2226 94.5238 64.6583L95.6956 57.1074C95.7388 56.7603 95.8906 56.4782 96.1515 56.2609C96.4119 56.044 96.7371 55.9022 97.1281 55.8373C97.5183 55.7728 97.8866 55.7402 98.2346 55.7402C98.5816 55.7402 98.9935 55.7623 99.4712 55.8055C99.9484 55.8486 100.253 55.8699 100.383 55.8699C104.115 55.8699 107.044 54.8183 109.171 52.7127C111.298 50.6084 112.361 47.6902 112.361 43.957C112.361 41.3965 111.525 39.5412 109.855 38.3908V38.3914ZM103.182 49.1001C102.227 49.751 100.795 50.0763 98.886 50.0763L96.8025 50.1416L97.9092 43.1758C97.9952 42.699 98.2774 42.4598 98.7553 42.4598H99.9267C100.882 42.4598 101.641 42.5034 102.206 42.59C102.769 42.6771 103.312 42.9479 103.833 43.4034C104.354 43.8593 104.614 44.5215 104.614 45.389C104.614 47.2124 104.136 48.4487 103.182 49.1001Z" fill="#009CDE"/>
</g>
<defs>
<clipPath id="clip0">
<rect width="160" height="106.667" fill="white"/>
</clipPath>
</defs>
</svg>
