<svg width="160" height="107" viewBox="0 0 160 107" fill="none" xmlns="http://www.w3.org/2000/svg">
<g clip-path="url(#clip0)">
<path d="M0 13.3333C0 5.96954 5.96954 0 13.3333 0H146.667C154.03 0 160 5.96954 160 13.3333V93.3333C160 100.697 154.03 106.667 146.667 106.667H13.3333C5.96953 106.667 0 100.697 0 93.3333V13.3333Z" fill="#D8E3F3"/>
<path d="M137.7 33.4501H129.318C126.784 33.4501 124.835 34.2298 123.665 36.7639L107.681 73.2162H118.987C118.987 73.2162 120.936 68.3429 121.326 67.1733C122.495 67.1733 133.607 67.1733 135.166 67.1733C135.556 68.5378 136.531 73.0212 136.531 73.0212H146.667L137.7 33.4501ZM124.445 58.9861C125.419 56.647 128.733 47.875 128.733 47.875C128.733 48.07 129.708 45.5358 130.098 44.1713L130.878 47.6801C130.878 47.6801 133.022 57.2318 133.412 59.1811H124.445V58.9861Z" fill="#3362AB"/>
<path d="M108.46 60.1558C108.46 68.3429 101.053 73.801 89.5516 73.801C84.6783 73.801 79.9999 72.8264 77.4658 71.6568L79.0253 62.6899L80.3898 63.2747C83.8986 64.8342 86.2377 65.419 90.5262 65.419C93.6451 65.419 96.959 64.2494 96.959 61.5203C96.959 59.7659 95.5945 58.5963 91.306 56.647C87.2124 54.6977 81.7543 51.5788 81.7543 45.9258C81.7543 38.1285 89.3567 32.8654 100.078 32.8654C104.171 32.8654 107.68 33.6451 109.824 34.6197L108.265 43.1967L107.485 42.417C105.536 41.6373 103.002 40.8576 99.2982 40.8576C95.2046 41.0525 93.2553 42.8069 93.2553 44.3663C93.2553 46.1207 95.5945 47.4852 99.2982 49.2396C105.536 52.1636 108.46 55.4774 108.46 60.1558Z" fill="#3362AB"/>
<path d="M13.3335 33.84L13.5284 33.0603H30.2926C32.6317 33.0603 34.3861 33.84 34.9709 36.3741L38.6746 53.918C34.9709 44.5613 26.3939 36.9589 13.3335 33.84Z" fill="#F9B50B"/>
<path d="M62.2613 33.4501L45.3022 73.0212H33.8013L24.0547 39.8828C31.0722 44.3662 36.9202 51.3838 39.0644 56.2571L40.234 60.3506L50.7603 33.2551H62.2613V33.4501Z" fill="#3362AB"/>
<path d="M66.7445 33.2551H77.4657L70.6431 73.0212H59.9219L66.7445 33.2551Z" fill="#3362AB"/>
</g>
<defs>
<clipPath id="clip0">
<rect width="160" height="106.667" fill="white"/>
</clipPath>
</defs>
</svg>
